# Blender v3.2.0 OBJ File: ''
# www.blender.org
o Icosphere
v 7.333814 4.477551 -3.175079
v 5.679567 4.847603 7.618784
v -5.464525 3.608630 7.492504
v -7.522161 3.476206 -3.175079
v 0.036269 3.357109 -9.521325
v 1.642858 -0.119443 -7.567188
v -2.999031 -0.072607 -6.611102
v 6.127393 -0.072607 -0.256871
v 3.394668 -0.072607 -6.397971
v 1.712091 -0.064502 7.083973
v 3.959375 -0.086320 5.990187
v -4.045570 -0.106255 3.687626
v -2.882453 -0.118217 6.706041
v -4.378149 -0.130496 -4.478340
v -4.724943 -0.072607 -0.256871
v 4.654953 5.672576 -8.665416
v 8.842087 5.315889 2.236187
v 0.004161 3.410475 9.512295
v -7.858358 2.936520 2.518597
v -4.898827 5.149511 -8.126425
v 4.863451 5.329794 -1.972138
v 0.004161 4.040628 -5.091681
v 3.007342 4.048320 4.233846
v -2.999019 3.654285 4.233846
v -4.234299 4.528790 -1.972138
vt 0.818181 0.314921
vt 0.727272 0.314921
vt 0.772726 0.393651
vt 1.000000 0.314921
vt 0.909091 0.314921
vt 0.954545 0.393651
vt 0.272727 0.314921
vt 0.181818 0.314921
vt 0.227273 0.393651
vt 0.454545 0.314921
vt 0.363636 0.314921
vt 0.409090 0.393651
vt 0.636363 0.314921
vt 0.545454 0.314921
vt 0.590909 0.393651
vt 0.841276 0.419024
vt 0.560577 0.226117
vt 0.491598 0.467232
vt 0.500000 0.393651
vt 0.988801 0.033360
vt 0.953428 0.033284
vt 0.970145 0.005450
vt 0.318182 0.393651
vt 0.136363 0.393651
vt 0.090909 0.314921
vt 0.863635 0.393651
vt 0.681818 0.393651
vt 0.590909 0.236191
vt 0.500000 0.236191
vt 0.409090 0.236191
vt 0.318182 0.236191
vt 0.227273 0.236191
vt 0.136363 0.236191
vt 0.954545 0.236191
vt 0.863635 0.236191
vt 0.772726 0.236191
vt 0.681818 0.236191
vt 0.045454 0.236191
vn 0.3421 0.9389 0.0374
vn -0.2282 0.9724 -0.0495
vn 0.0243 0.9992 0.0324
vn -0.3273 0.9423 0.0700
vn 0.3018 0.9425 -0.1433
vn 0.1723 0.9818 0.0804
vn -0.3454 0.9293 0.1310
vn -0.2045 0.9628 0.1764
vn -0.1193 0.9899 -0.0764
vn -0.0652 0.9944 0.0830
vn -0.2541 0.9668 -0.0277
vn -0.1592 0.9752 0.1537
vn 0.2258 0.9512 -0.2103
vn -0.2906 0.9551 0.0580
vn -0.4226 0.8952 -0.1412
vn -0.3772 -0.3820 -0.8437
vn -0.7566 -0.4205 -0.5007
vn -0.7241 -0.4390 -0.5320
vn -0.7363 -0.6682 -0.1068
vn -0.6396 -0.7617 0.1037
vn -0.6437 -0.6536 0.3981
vn -0.3293 -0.4079 0.8516
vn -0.0593 -0.5912 0.8043
vn 0.3794 -0.3974 0.8355
vn 0.7977 -0.4207 0.4321
vn 0.8007 -0.5314 0.2767
vn 0.9092 -0.3671 -0.1965
vn 0.8041 -0.3624 -0.4712
vn 0.5139 -0.4101 -0.7535
vn 0.3335 -0.3401 -0.8793
vn -0.7623 -0.6450 -0.0538
vn -0.7571 -0.5856 0.2894
vn 0.3961 -0.4094 0.8219
vn 0.8162 -0.4493 -0.3632
vn -0.1747 -0.5426 -0.8216
s off
f 1/1/1 16/2/1 21/3/1
f 2/4/2 17/5/2 23/6/2
f 3/7/3 18/8/3 24/9/3
f 4/10/4 19/11/4 25/12/4
f 5/13/5 20/14/5 22/15/5
f 22/16/6 20/17/6 25/18/6
f 20/14/7 4/10/7 25/19/7
f 25/20/8 19/21/8 24/22/8
f 19/11/9 3/7/9 24/23/9
f 24/9/10 18/8/10 23/24/10
f 18/8/11 2/25/11 23/24/11
f 23/6/12 17/5/12 21/26/12
f 17/5/13 1/1/13 21/26/13
f 21/3/14 16/2/14 22/27/14
f 16/2/15 5/13/15 22/27/15
f 7/28/16 20/14/16 5/13/16
f 7/28/17 14/29/17 20/14/17
f 14/29/18 4/10/18 20/14/18
f 15/30/19 19/11/19 4/10/19
f 15/30/20 12/31/20 19/11/20
f 12/31/21 3/7/21 19/11/21
f 13/32/22 18/8/22 3/7/22
f 13/32/23 10/33/23 18/8/23
f 10/33/24 2/25/24 18/8/24
f 11/34/25 17/5/25 2/4/25
f 11/34/26 8/35/26 17/5/26
f 8/35/27 1/1/27 17/5/27
f 9/36/28 16/2/28 1/1/28
f 9/36/29 6/37/29 16/2/29
f 6/37/30 5/13/30 16/2/30
f 14/29/31 15/30/31 4/10/31
f 12/31/32 13/32/32 3/7/32
f 10/33/33 11/38/33 2/25/33
f 8/35/34 9/36/34 1/1/34
f 6/37/35 7/28/35 5/13/35
